<mxfile host="65bd71144e">
    <diagram id="H1cAVrbT_rbeejIv69mP" name="Page-1">
        <mxGraphModel dx="1368" dy="978" grid="1" gridSize="10" guides="1" tooltips="1" connect="1" arrows="1" fold="1" page="1" pageScale="1" pageWidth="827" pageHeight="1169" math="0" shadow="0">
            <root>
                <mxCell id="0"/>
                <mxCell id="1" parent="0"/>
                <mxCell id="2" value="Users" style="swimlane;childLayout=stackLayout;horizontal=1;startSize=30;horizontalStack=0;rounded=1;fontSize=14;fontStyle=0;strokeWidth=2;resizeParent=0;resizeLast=1;shadow=0;dashed=0;align=center;" parent="1" vertex="1">
                    <mxGeometry x="40" y="10" width="160" height="120" as="geometry"/>
                </mxCell>
                <mxCell id="3" value="LoginEmail&#10;HashedPassword&#10;Rôle&#10;LastLogin" style="align=left;strokeColor=none;fillColor=none;spacingLeft=4;fontSize=12;verticalAlign=top;resizable=0;rotatable=0;part=1;" parent="2" vertex="1">
                    <mxGeometry y="30" width="160" height="90" as="geometry"/>
                </mxCell>
                <mxCell id="4" value="Documents" style="swimlane;childLayout=stackLayout;horizontal=1;startSize=30;horizontalStack=0;rounded=1;fontSize=14;fontStyle=0;strokeWidth=2;resizeParent=0;resizeLast=1;shadow=0;dashed=0;align=center;" parent="1" vertex="1">
                    <mxGeometry x="667" y="760" width="160" height="140" as="geometry"/>
                </mxCell>
                <mxCell id="5" value="Nom&#10;Type&#10;Catégorie&#10;Format&#10;Date de création&#10;Dernière modification&#10;Path&#10;&#10;&#10;" style="align=left;strokeColor=none;fillColor=none;spacingLeft=4;fontSize=12;verticalAlign=top;resizable=0;rotatable=0;part=1;" parent="4" vertex="1">
                    <mxGeometry y="30" width="160" height="110" as="geometry"/>
                </mxCell>
                <mxCell id="6" value="Offres/Projets" style="swimlane;childLayout=stackLayout;horizontal=1;startSize=30;horizontalStack=0;rounded=1;fontSize=14;fontStyle=0;strokeWidth=2;resizeParent=0;resizeLast=1;shadow=0;dashed=0;align=center;" parent="1" vertex="1">
                    <mxGeometry x="620" y="30" width="160" height="230" as="geometry"/>
                </mxCell>
                <mxCell id="7" value="Nom Offre&#10;Antenne Enea&#10;Statut&#10;Date_étape&#10;Type&#10;Numéro du contrat&#10;Objectif&#10;Description&#10;Date création&#10;Date début prévue&#10;Date fin prévue&#10;Date début effective&#10;Date fin effective&#10;" style="align=left;strokeColor=none;fillColor=none;spacingLeft=4;fontSize=12;verticalAlign=top;resizable=0;rotatable=0;part=1;" parent="6" vertex="1">
                    <mxGeometry y="30" width="160" height="200" as="geometry"/>
                </mxCell>
                <mxCell id="8" value="gérer" style="shape=rhombus;double=1;perimeter=rhombusPerimeter;whiteSpace=wrap;html=1;align=center;" parent="1" vertex="1">
                    <mxGeometry x="330" y="50" width="120" height="60" as="geometry"/>
                </mxCell>
                <mxCell id="9" value="utiliser" style="shape=rhombus;double=1;perimeter=rhombusPerimeter;whiteSpace=wrap;html=1;align=center;" parent="1" vertex="1">
                    <mxGeometry x="700" y="510" width="120" height="60" as="geometry"/>
                </mxCell>
                <mxCell id="10" value="Tickets" style="swimlane;childLayout=stackLayout;horizontal=1;startSize=30;horizontalStack=0;rounded=1;fontSize=14;fontStyle=0;strokeWidth=2;resizeParent=0;resizeLast=1;shadow=0;dashed=0;align=center;" parent="1" vertex="1">
                    <mxGeometry x="330" y="760" width="160" height="120" as="geometry"/>
                </mxCell>
                <mxCell id="11" value="+Attribute1&#10;+Attribute2&#10;+Attribute3" style="align=left;strokeColor=none;fillColor=none;spacingLeft=4;fontSize=12;verticalAlign=top;resizable=0;rotatable=0;part=1;" parent="10" vertex="1">
                    <mxGeometry y="30" width="160" height="90" as="geometry"/>
                </mxCell>
                <mxCell id="12" value="Contacts" style="swimlane;childLayout=stackLayout;horizontal=1;startSize=30;horizontalStack=0;rounded=1;fontSize=14;fontStyle=0;strokeWidth=2;resizeParent=0;resizeLast=1;shadow=0;dashed=0;align=center;" parent="1" vertex="1">
                    <mxGeometry x="40" y="465" width="160" height="205" as="geometry"/>
                </mxCell>
                <mxCell id="13" value="Nom&#10;Prénom&#10;Sexe&#10;Fonction entreprise&#10;Téléphone 1 &#10;Téléphone 2&#10;Mail 1&#10;Mail 2&#10;Adresse&#10;CP&#10;Ville" style="align=left;strokeColor=none;fillColor=none;spacingLeft=4;fontSize=12;verticalAlign=top;resizable=0;rotatable=0;part=1;" parent="12" vertex="1">
                    <mxGeometry y="30" width="160" height="175" as="geometry"/>
                </mxCell>
                <mxCell id="17" value="Interactions" style="swimlane;childLayout=stackLayout;horizontal=1;startSize=30;horizontalStack=0;rounded=1;fontSize=14;fontStyle=0;strokeWidth=2;resizeParent=0;resizeLast=1;shadow=0;dashed=0;align=center;" parent="1" vertex="1">
                    <mxGeometry x="470" y="420" width="160" height="130" as="geometry"/>
                </mxCell>
                <mxCell id="19" value="Type&#10;Sujet&#10;Date &#10;Heure&#10;Description&#10;Statut" style="align=left;strokeColor=none;fillColor=none;spacingLeft=4;fontSize=12;verticalAlign=top;resizable=0;rotatable=0;part=1;" parent="17" vertex="1">
                    <mxGeometry y="30" width="160" height="100" as="geometry"/>
                </mxCell>
                <mxCell id="21" value="associer à" style="shape=rhombus;double=1;perimeter=rhombusPerimeter;whiteSpace=wrap;html=1;align=center;" parent="1" vertex="1">
                    <mxGeometry x="490" y="310" width="120" height="60" as="geometry"/>
                </mxCell>
                <mxCell id="23" value="Produits/Services" style="swimlane;childLayout=stackLayout;horizontal=1;startSize=30;horizontalStack=0;rounded=1;fontSize=14;fontStyle=0;strokeWidth=2;resizeParent=0;resizeLast=1;shadow=0;dashed=0;align=center;" parent="1" vertex="1">
                    <mxGeometry x="50" y="760" width="160" height="120" as="geometry"/>
                </mxCell>
                <mxCell id="24" value="+Attribute1&#10;+Attribute2&#10;+Attribute3" style="align=left;strokeColor=none;fillColor=none;spacingLeft=4;fontSize=12;verticalAlign=top;resizable=0;rotatable=0;part=1;" parent="23" vertex="1">
                    <mxGeometry y="30" width="160" height="90" as="geometry"/>
                </mxCell>
                <mxCell id="30" value="" style="endArrow=none;html=1;rounded=0;entryX=0;entryY=0.5;entryDx=0;entryDy=0;" parent="1" target="8" edge="1">
                    <mxGeometry relative="1" as="geometry">
                        <mxPoint x="200" y="80" as="sourcePoint"/>
                        <mxPoint x="490" y="500" as="targetPoint"/>
                    </mxGeometry>
                </mxCell>
                <mxCell id="32" value="0,N" style="edgeLabel;html=1;align=center;verticalAlign=middle;resizable=0;points=[];" parent="30" vertex="1" connectable="0">
                    <mxGeometry x="-0.7937" y="-1" relative="1" as="geometry">
                        <mxPoint x="17" y="-1" as="offset"/>
                    </mxGeometry>
                </mxCell>
                <mxCell id="31" value="" style="endArrow=none;html=1;rounded=0;exitX=1;exitY=0.5;exitDx=0;exitDy=0;" parent="1" source="8" edge="1">
                    <mxGeometry relative="1" as="geometry">
                        <mxPoint x="330" y="500" as="sourcePoint"/>
                        <mxPoint x="620" y="80" as="targetPoint"/>
                    </mxGeometry>
                </mxCell>
                <mxCell id="33" value="1,N" style="edgeLabel;html=1;align=center;verticalAlign=middle;resizable=0;points=[];" parent="31" vertex="1" connectable="0">
                    <mxGeometry x="0.7027" relative="1" as="geometry">
                        <mxPoint as="offset"/>
                    </mxGeometry>
                </mxCell>
                <mxCell id="34" value="" style="endArrow=none;html=1;rounded=0;exitX=0.5;exitY=0;exitDx=0;exitDy=0;entryX=0.5;entryY=1;entryDx=0;entryDy=0;" parent="1" source="17" target="21" edge="1">
                    <mxGeometry relative="1" as="geometry">
                        <mxPoint x="330" y="500" as="sourcePoint"/>
                        <mxPoint x="490" y="500" as="targetPoint"/>
                    </mxGeometry>
                </mxCell>
                <mxCell id="35" value="1,1" style="edgeLabel;html=1;align=center;verticalAlign=middle;resizable=0;points=[];" parent="34" vertex="1" connectable="0">
                    <mxGeometry x="-0.3956" relative="1" as="geometry">
                        <mxPoint as="offset"/>
                    </mxGeometry>
                </mxCell>
                <mxCell id="36" value="" style="endArrow=none;html=1;rounded=0;exitX=0.5;exitY=0;exitDx=0;exitDy=0;entryX=0.25;entryY=1;entryDx=0;entryDy=0;" parent="1" source="21" target="7" edge="1">
                    <mxGeometry relative="1" as="geometry">
                        <mxPoint x="330" y="500" as="sourcePoint"/>
                        <mxPoint x="490" y="500" as="targetPoint"/>
                        <Array as="points">
                            <mxPoint x="660" y="310"/>
                        </Array>
                    </mxGeometry>
                </mxCell>
                <mxCell id="37" value="0,N" style="edgeLabel;html=1;align=center;verticalAlign=middle;resizable=0;points=[];" parent="36" vertex="1" connectable="0">
                    <mxGeometry x="0.5481" y="-2" relative="1" as="geometry">
                        <mxPoint y="-14" as="offset"/>
                    </mxGeometry>
                </mxCell>
                <mxCell id="38" value="" style="endArrow=none;html=1;rounded=0;exitX=0.86;exitY=1.026;exitDx=0;exitDy=0;entryX=0.5;entryY=0;entryDx=0;entryDy=0;exitPerimeter=0;" parent="1" source="7" target="9" edge="1">
                    <mxGeometry relative="1" as="geometry">
                        <mxPoint x="330" y="500" as="sourcePoint"/>
                        <mxPoint x="490" y="500" as="targetPoint"/>
                    </mxGeometry>
                </mxCell>
                <mxCell id="45" value="0,N" style="edgeLabel;html=1;align=center;verticalAlign=middle;resizable=0;points=[];" parent="38" vertex="1" connectable="0">
                    <mxGeometry x="-0.8787" y="-1" relative="1" as="geometry">
                        <mxPoint as="offset"/>
                    </mxGeometry>
                </mxCell>
                <mxCell id="39" value="" style="endArrow=none;html=1;rounded=0;entryX=0.5;entryY=1;entryDx=0;entryDy=0;exitX=0.581;exitY=-0.011;exitDx=0;exitDy=0;exitPerimeter=0;" parent="1" source="4" target="9" edge="1">
                    <mxGeometry relative="1" as="geometry">
                        <mxPoint x="330" y="500" as="sourcePoint"/>
                        <mxPoint x="490" y="500" as="targetPoint"/>
                    </mxGeometry>
                </mxCell>
                <mxCell id="46" value="1,1" style="edgeLabel;html=1;align=center;verticalAlign=middle;resizable=0;points=[];" parent="39" vertex="1" connectable="0">
                    <mxGeometry x="-0.7475" relative="1" as="geometry">
                        <mxPoint as="offset"/>
                    </mxGeometry>
                </mxCell>
                <mxCell id="40" value="lier" style="shape=rhombus;double=1;perimeter=rhombusPerimeter;whiteSpace=wrap;html=1;align=center;" parent="1" vertex="1">
                    <mxGeometry x="280" y="490" width="120" height="60" as="geometry"/>
                </mxCell>
                <mxCell id="41" value="" style="endArrow=none;html=1;rounded=0;exitX=1;exitY=0.5;exitDx=0;exitDy=0;" parent="1" source="40" edge="1">
                    <mxGeometry relative="1" as="geometry">
                        <mxPoint x="330" y="500" as="sourcePoint"/>
                        <mxPoint x="470" y="520" as="targetPoint"/>
                        <Array as="points"/>
                    </mxGeometry>
                </mxCell>
                <mxCell id="43" value="1,N" style="edgeLabel;html=1;align=center;verticalAlign=middle;resizable=0;points=[];" parent="41" vertex="1" connectable="0">
                    <mxGeometry x="0.779" y="2" relative="1" as="geometry">
                        <mxPoint x="-17" y="2" as="offset"/>
                    </mxGeometry>
                </mxCell>
                <mxCell id="42" value="" style="endArrow=none;html=1;rounded=0;entryX=0;entryY=0.5;entryDx=0;entryDy=0;exitX=1.02;exitY=0.148;exitDx=0;exitDy=0;exitPerimeter=0;" parent="1" source="13" target="40" edge="1">
                    <mxGeometry relative="1" as="geometry">
                        <mxPoint x="180" y="180" as="sourcePoint"/>
                        <mxPoint x="490" y="500" as="targetPoint"/>
                        <Array as="points"/>
                    </mxGeometry>
                </mxCell>
                <mxCell id="44" value="0,N" style="edgeLabel;html=1;align=center;verticalAlign=middle;resizable=0;points=[];" parent="42" vertex="1" connectable="0">
                    <mxGeometry x="-0.5867" y="1" relative="1" as="geometry">
                        <mxPoint as="offset"/>
                    </mxGeometry>
                </mxCell>
                <mxCell id="47" value="Sociétés" style="swimlane;childLayout=stackLayout;horizontal=1;startSize=30;horizontalStack=0;rounded=1;fontSize=14;fontStyle=0;strokeWidth=2;resizeParent=0;resizeLast=1;shadow=0;dashed=0;align=center;" parent="1" vertex="1">
                    <mxGeometry x="290" y="230" width="160" height="160" as="geometry"/>
                </mxCell>
                <mxCell id="48" value="&#10;Nom Société&#10;Adresse&#10;CP&#10;Ville&#10;Antenne Enea &#10;Catégorie" style="align=left;strokeColor=none;fillColor=none;spacingLeft=4;fontSize=12;verticalAlign=top;resizable=0;rotatable=0;part=1;" parent="47" vertex="1">
                    <mxGeometry y="30" width="160" height="130" as="geometry"/>
                </mxCell>
                <mxCell id="50" value="définir" style="shape=rhombus;double=1;perimeter=rhombusPerimeter;whiteSpace=wrap;html=1;align=center;" parent="1" vertex="1">
                    <mxGeometry x="30" y="270" width="120" height="60" as="geometry"/>
                </mxCell>
                <mxCell id="52" value="" style="endArrow=none;html=1;rounded=0;exitX=0.5;exitY=0;exitDx=0;exitDy=0;entryX=0.313;entryY=1;entryDx=0;entryDy=0;entryPerimeter=0;" parent="1" source="50" target="3" edge="1">
                    <mxGeometry relative="1" as="geometry">
                        <mxPoint x="330" y="490" as="sourcePoint"/>
                        <mxPoint x="490" y="490" as="targetPoint"/>
                        <Array as="points"/>
                    </mxGeometry>
                </mxCell>
                <mxCell id="57" value="1,1" style="edgeLabel;html=1;align=center;verticalAlign=middle;resizable=0;points=[];" parent="52" vertex="1" connectable="0">
                    <mxGeometry x="0.4105" y="2" relative="1" as="geometry">
                        <mxPoint x="1" as="offset"/>
                    </mxGeometry>
                </mxCell>
                <mxCell id="56" value="" style="endArrow=none;html=1;rounded=0;entryX=0.5;entryY=1;entryDx=0;entryDy=0;" parent="1" target="50" edge="1">
                    <mxGeometry relative="1" as="geometry">
                        <mxPoint x="90" y="460" as="sourcePoint"/>
                        <mxPoint x="490" y="490" as="targetPoint"/>
                        <Array as="points"/>
                    </mxGeometry>
                </mxCell>
                <mxCell id="58" value="0,1" style="edgeLabel;html=1;align=center;verticalAlign=middle;resizable=0;points=[];" parent="56" vertex="1" connectable="0">
                    <mxGeometry x="0.1543" relative="1" as="geometry">
                        <mxPoint y="53" as="offset"/>
                    </mxGeometry>
                </mxCell>
                <mxCell id="59" value="appartenir" style="shape=rhombus;double=1;perimeter=rhombusPerimeter;whiteSpace=wrap;html=1;align=center;" parent="1" vertex="1">
                    <mxGeometry x="180" y="170" width="120" height="60" as="geometry"/>
                </mxCell>
                <mxCell id="60" value="lier" style="shape=rhombus;double=1;perimeter=rhombusPerimeter;whiteSpace=wrap;html=1;align=center;" parent="1" vertex="1">
                    <mxGeometry x="440" y="170" width="120" height="60" as="geometry"/>
                </mxCell>
                <mxCell id="61" value="" style="endArrow=none;html=1;rounded=0;entryX=0;entryY=0.5;entryDx=0;entryDy=0;" parent="1" target="59" edge="1">
                    <mxGeometry relative="1" as="geometry">
                        <mxPoint x="180" y="130" as="sourcePoint"/>
                        <mxPoint x="490" y="490" as="targetPoint"/>
                    </mxGeometry>
                </mxCell>
                <mxCell id="63" value="1,1" style="edgeLabel;html=1;align=center;verticalAlign=middle;resizable=0;points=[];" parent="61" vertex="1" connectable="0">
                    <mxGeometry x="-0.2971" relative="1" as="geometry">
                        <mxPoint as="offset"/>
                    </mxGeometry>
                </mxCell>
                <mxCell id="62" value="" style="endArrow=none;html=1;rounded=0;entryX=0.365;entryY=0.013;entryDx=0;entryDy=0;entryPerimeter=0;" parent="1" target="47" edge="1">
                    <mxGeometry relative="1" as="geometry">
                        <mxPoint x="300" y="199.5" as="sourcePoint"/>
                        <mxPoint x="460" y="199.5" as="targetPoint"/>
                        <Array as="points">
                            <mxPoint x="348" y="200"/>
                        </Array>
                    </mxGeometry>
                </mxCell>
                <mxCell id="69" value="1,N" style="edgeLabel;html=1;align=center;verticalAlign=middle;resizable=0;points=[];" parent="62" vertex="1" connectable="0">
                    <mxGeometry x="0.6174" relative="1" as="geometry">
                        <mxPoint as="offset"/>
                    </mxGeometry>
                </mxCell>
                <mxCell id="64" value="appartenir" style="shape=rhombus;double=1;perimeter=rhombusPerimeter;whiteSpace=wrap;html=1;align=center;" parent="1" vertex="1">
                    <mxGeometry x="190" y="400" width="120" height="60" as="geometry"/>
                </mxCell>
                <mxCell id="65" value="" style="endArrow=none;html=1;rounded=0;exitX=0.68;exitY=-0.007;exitDx=0;exitDy=0;exitPerimeter=0;entryX=0;entryY=0.5;entryDx=0;entryDy=0;" parent="1" source="47" target="60" edge="1">
                    <mxGeometry relative="1" as="geometry">
                        <mxPoint x="330" y="490" as="sourcePoint"/>
                        <mxPoint x="490" y="490" as="targetPoint"/>
                        <Array as="points">
                            <mxPoint x="400" y="200"/>
                        </Array>
                    </mxGeometry>
                </mxCell>
                <mxCell id="66" value="0,N" style="edgeLabel;html=1;align=center;verticalAlign=middle;resizable=0;points=[];" parent="65" vertex="1" connectable="0">
                    <mxGeometry x="-0.6856" y="-1" relative="1" as="geometry">
                        <mxPoint as="offset"/>
                    </mxGeometry>
                </mxCell>
                <mxCell id="67" value="" style="endArrow=none;html=1;rounded=0;exitX=-0.002;exitY=0.654;exitDx=0;exitDy=0;exitPerimeter=0;entryX=1;entryY=0.5;entryDx=0;entryDy=0;" parent="1" source="7" target="60" edge="1">
                    <mxGeometry relative="1" as="geometry">
                        <mxPoint x="330" y="490" as="sourcePoint"/>
                        <mxPoint x="490" y="490" as="targetPoint"/>
                        <Array as="points"/>
                    </mxGeometry>
                </mxCell>
                <mxCell id="68" value="1,1" style="edgeLabel;html=1;align=center;verticalAlign=middle;resizable=0;points=[];" parent="67" vertex="1" connectable="0">
                    <mxGeometry x="-0.7546" y="-1" relative="1" as="geometry">
                        <mxPoint x="-12" y="5" as="offset"/>
                    </mxGeometry>
                </mxCell>
                <mxCell id="70" value="" style="endArrow=none;html=1;rounded=0;entryX=0;entryY=0.5;entryDx=0;entryDy=0;" parent="1" target="64" edge="1">
                    <mxGeometry relative="1" as="geometry">
                        <mxPoint x="130" y="460" as="sourcePoint"/>
                        <mxPoint x="490" y="490" as="targetPoint"/>
                        <Array as="points">
                            <mxPoint x="130" y="430"/>
                        </Array>
                    </mxGeometry>
                </mxCell>
                <mxCell id="71" value="1,1" style="edgeLabel;html=1;align=center;verticalAlign=middle;resizable=0;points=[];" parent="70" vertex="1" connectable="0">
                    <mxGeometry x="-0.7584" relative="1" as="geometry">
                        <mxPoint as="offset"/>
                    </mxGeometry>
                </mxCell>
                <mxCell id="72" value="" style="endArrow=none;html=1;rounded=0;exitX=1;exitY=0.5;exitDx=0;exitDy=0;entryX=0.575;entryY=1.031;entryDx=0;entryDy=0;entryPerimeter=0;" parent="1" source="64" target="48" edge="1">
                    <mxGeometry relative="1" as="geometry">
                        <mxPoint x="330" y="490" as="sourcePoint"/>
                        <mxPoint x="380" y="430" as="targetPoint"/>
                        <Array as="points">
                            <mxPoint x="382" y="430"/>
                        </Array>
                    </mxGeometry>
                </mxCell>
                <mxCell id="73" value="1,N" style="edgeLabel;html=1;align=center;verticalAlign=middle;resizable=0;points=[];" parent="72" vertex="1" connectable="0">
                    <mxGeometry x="0.7767" y="1" relative="1" as="geometry">
                        <mxPoint as="offset"/>
                    </mxGeometry>
                </mxCell>
                <mxCell id="76" value="représenter" style="shape=rhombus;double=1;perimeter=rhombusPerimeter;whiteSpace=wrap;html=1;align=center;" vertex="1" parent="1">
                    <mxGeometry x="460" y="600" width="120" height="60" as="geometry"/>
                </mxCell>
                <mxCell id="77" value="" style="endArrow=none;html=1;rounded=0;entryX=0;entryY=0.5;entryDx=0;entryDy=0;exitX=1.013;exitY=0.792;exitDx=0;exitDy=0;exitPerimeter=0;" edge="1" parent="1" source="13" target="76">
                    <mxGeometry relative="1" as="geometry">
                        <mxPoint x="200" y="640" as="sourcePoint"/>
                        <mxPoint x="360" y="640" as="targetPoint"/>
                        <Array as="points"/>
                    </mxGeometry>
                </mxCell>
                <mxCell id="79" value="0,N" style="edgeLabel;html=1;align=center;verticalAlign=middle;resizable=0;points=[];" vertex="1" connectable="0" parent="77">
                    <mxGeometry x="-0.7187" y="-4" relative="1" as="geometry">
                        <mxPoint x="2" y="-7" as="offset"/>
                    </mxGeometry>
                </mxCell>
                <mxCell id="80" value="" style="endArrow=none;html=1;rounded=0;exitX=1;exitY=0.5;exitDx=0;exitDy=0;entryX=0.44;entryY=1.002;entryDx=0;entryDy=0;entryPerimeter=0;" edge="1" parent="1" source="76" target="7">
                    <mxGeometry relative="1" as="geometry">
                        <mxPoint x="610" y="629.5" as="sourcePoint"/>
                        <mxPoint x="690" y="270" as="targetPoint"/>
                        <Array as="points">
                            <mxPoint x="690" y="629.5"/>
                        </Array>
                    </mxGeometry>
                </mxCell>
                <mxCell id="81" value="1,1" style="edgeLabel;html=1;align=center;verticalAlign=middle;resizable=0;points=[];" vertex="1" connectable="0" parent="80">
                    <mxGeometry x="0.8355" y="-1" relative="1" as="geometry">
                        <mxPoint as="offset"/>
                    </mxGeometry>
                </mxCell>
            </root>
        </mxGraphModel>
    </diagram>
</mxfile>